<?xml version="1.0" encoding="UTF-8"?>
<svg width="24px" height="24px" viewBox="0 0 24 24" version="1.1" xmlns="http://www.w3.org/2000/svg" xmlns:xlink="http://www.w3.org/1999/xlink">
    <!-- Generator: Sketch 59.1 (86144) - https://sketch.com -->
    <g id="Icons-/-PDUI-Legacy-Feature-/-distribution" stroke="none" stroke-width="1">
        <path d="M21.9935405,2.572594 C22.0493748,2.261845 21.7337555,2 21.4132894,2 C21.3005219,2 21.2013338,2.0400715 21.112251,2.095007 L2.28990983,12.7983983 C2.1197203,12.8981908 2,13.0735535 2,13.2830852 C2,13.5214657 2.14787862,13.7252003 2.35784023,13.811379 L6.9299497,15.7763975 L18.9496894,5.50294325 L9.1209666,17.398029 L9.12083131,21.4273793 C9.12083131,21.7436165 9.38061587,22 9.70108242,22 C9.87399361,22 10.024755,21.9219047 10.1310568,21.8034978 L12.9553806,18.479081 L18.1652427,20.6469568 C18.1664291,20.647461 18.2630344,20.6861777 18.3927192,20.693037 C18.6676484,20.7075783 18.8827014,20.5043525 18.9454322,20.2549895 C18.9454322,20.2549895 21.9862526,2.61315275 21.9935405,2.572594 Z" id="distribution" fill-rule="nonzero"></path>
    </g>
</svg>