<?xml version="1.0" encoding="UTF-8"?>
<svg width="24px" height="24px" viewBox="0 0 24 24" version="1.1" xmlns="http://www.w3.org/2000/svg" xmlns:xlink="http://www.w3.org/1999/xlink">
    <!-- Generator: Sketch 59.1 (86144) - https://sketch.com -->
    <g id="Icons-/-PDUI-Legacy-Feature-/-documents" stroke="none" stroke-width="1">
        <path d="M14.7678321,2 L14.7678321,8.3157135 C14.7678321,9.3684125 15.5715339,10.1578565 16.6428629,10.1578565 L16.6428629,10.1578565 L22,10.1578565 L22,19.8947627 C22,20.947301 20.9286711,22 19.8571772,22 L19.8571772,22 L9.6786503,22 C8.60715748,22 7.53582803,20.947301 7.53582803,19.8947632 L7.53582803,19.8947632 L7.53582803,4.10523775 C7.53582803,3.0525385 8.33936577,2 9.6786503,2 L9.6786503,2 L14.7678321,2 Z M5.66079772,2 C4.58930465,2 3.51797545,3.0525385 3.51797545,4.10523775 L3.51797545,4.10523775 L3.51797545,19.8947627 C3.51797545,20.947301 4.32151319,22 5.66079772,22 L5.66079772,22 L3.78576691,22 C2.71427409,22 2,20.947301 2,19.8947632 L2,19.8947632 L2,4.10523775 C2,3.0525385 2.71427409,2 3.78576691,2 L3.78576691,2 Z M8.33936577,2 C7.26787295,2 6.19654401,3.0525385 6.19654401,4.10523775 L6.19654401,4.10523775 L6.19654401,19.8947627 C6.19654401,20.947301 7.26787295,22 8.60715748,22 L8.60715748,22 L6.73212667,22 C5.66079772,22 4.58930465,20.947301 4.58930465,19.8947632 L4.58930465,19.8947632 L4.58930465,4.10523775 C4.58930465,3.0525385 5.39284265,2 6.73212667,2 L6.73212667,2 Z M16.3750709,2 L21.9999997,8.57896875 L17.4464011,8.57896875 C16.9108175,8.57896875 16.3750709,8.0526185 16.3750709,7.526269 L16.3750709,7.526269 L16.3750709,2 Z" id="documents" fill-rule="nonzero"></path>
    </g>
</svg>