<?xml version="1.0" encoding="UTF-8"?>
<svg width="24px" height="24px" viewBox="0 0 24 24" version="1.1" xmlns="http://www.w3.org/2000/svg" xmlns:xlink="http://www.w3.org/1999/xlink">
    <!-- Generator: Sketch 59.1 (86144) - https://sketch.com -->
    <g id="Icons-/-PDUI-Legacy-Feature-/-employee" stroke="none" stroke-width="1">
        <path d="M12.6153846,2 C13.1076923,2 13.3538462,2.5 13.3538462,2.75 L13.353,4.249 L17.7846154,4.25 C18.9538462,4.25 19.6787692,5.1525 19.9593846,6.100125 L20,6.25 L20,20 C20,21 19.0153846,22 18.0307692,22 L18.0307692,22 L5.96923077,22 C4.73846154,22 4,21 4,20 L4,20 L4,6.25 C4,5.25 4.98461538,4.25 5.96923077,4.25 L5.96923077,4.25 L10.153,4.249 L10.1538462,2.75 C10.1538462,2.5 10.6461538,2 10.8923077,2 L12.6153846,2 Z M16.8,6.25 L13.353,6.249 L13.3538462,6.5 C13.6,7.25 13.1076923,7.5 12.8615385,7.5 L10.8923077,7.5 C10.4,7.5 10.1538462,7 10.1538462,6.75 L10.153,6.249 L6.70769231,6.25 C6.25054945,6.25 5.79340659,6.68112245 5.73043283,7.14303936 L5.72307692,7.25 L5.72307692,19 C5.72307692,19.5 6.21538462,20 6.70769231,20 L6.70769231,20 L16.8,20 C17.2923077,20 17.7846154,19.5 17.7846154,19 L17.7846154,19 L17.7846154,7.25 C17.7846154,6.75 17.2923077,6.25 16.8,6.25 L16.8,6.25 Z M15.5692308,16.5 C16.0615385,16.5 16.5538462,17 16.5538462,17.5 C16.5538462,18 16.0615385,18.5 15.5692308,18.5 L15.5692308,18.5 L8.18461538,18.5 C7.69230769,18.5 7.2,18 7.2,17.5 C7.2,17 7.69230769,16.5 8.18461538,16.5 L8.18461538,16.5 Z M11.6307692,8.75 C12.6153846,8.75 13.3538462,9.5 13.3538462,10.5 L13.3538462,10.5 L13.3538462,13.5 C13.3538462,14.5 12.6153846,15.25 11.6307692,15.25 L11.6307692,15.25 L8.67692308,15.25 C7.69230769,15.25 6.95384615,14.5 6.95384615,13.5 L6.95384615,13.5 L6.95384615,10.5 C6.95384615,9.5 7.69230769,8.75 8.67692308,8.75 L8.67692308,8.75 Z" id="employee" fill-rule="nonzero"></path>
    </g>
</svg>