<?xml version="1.0" encoding="UTF-8"?>
<svg width="24px" height="24px" viewBox="0 0 24 24" version="1.1" xmlns="http://www.w3.org/2000/svg" xmlns:xlink="http://www.w3.org/1999/xlink">
    <!-- Generator: Sketch 59.1 (86144) - https://sketch.com -->
    <g id="Icons-/-PDUI-Legacy-Feature-/-signature" stroke="none" stroke-width="1">
        <path d="M20.472115,15.8096267 C19.6303795,16.1553402 18.4995292,16.6646969 18.4995292,16.6646969 C18.4995292,16.6646969 17.6499077,15.5095272 16.1573897,15.5095272 C14.6648717,15.5095272 13.3332524,16.2488438 10.9890834,17.2216798 C8.90573458,18.0863685 7.0006653,18.4747408 5.68240178,18.6564229 L12.0703384,14.6827662 C12.0703384,14.6827662 12.2042391,14.607733 12.2858271,14.4700856 C12.3476406,14.3658012 12.3223099,14.1680265 12.3223099,14.1680265 L11.5747634,7.41895453 C11.5747634,7.41895453 14.0613911,5.45656872 14.2042099,5.33101643 C14.4522521,5.11296124 14.2581114,4.76245198 14.0148291,4.61968987 L14.0146681,4.61968987 L9.67854284,2.07680113 L9.67822159,2.07696659 L9.67789959,2.07630423 C9.43461683,1.93370758 9.02868883,1.98670141 8.98682908,2.27140141 C8.94955108,2.52493541 8.57524357,5.67947531 8.57524357,5.67947531 L2.58569849,8.43750088 C2.58569849,8.43750088 2.41265249,8.50596886 2.34769274,8.59406811 C2.28740924,8.67582553 2.25885149,8.7950527 2.25745999,8.90371399 C2.25606849,9.01237527 2.13115248,18.7668891 2.13115248,18.7668891 C1.85810323,19.2604294 2.02511873,19.8884502 2.50476499,20.169668 C2.67918174,20.2720199 2.86888424,20.2955374 3.05536875,20.2842754 C3.07725125,20.2859318 7.10283705,19.880997 9.34853458,19.2574475 C11.5945539,18.634065 14.2722711,17.097798 16.5236007,17.4543718 C16.7199002,17.4855082 13.6249659,17.9167764 11.9525591,19.8809972 C11.0714646,20.9161065 11.8630979,22.1840722 13.8840171,21.9777133 C14.5811842,21.8852428 15.5136822,21.6951777 16.6420587,20.9120448 C18.240697,19.8025357 18.6331745,18.0244264 18.6331745,18.0244264 C18.6331745,18.0244264 19.976972,17.995466 20.6378075,18.1124405 C21.2548227,18.2216602 21.736494,18.2930035 21.9765433,16.686949 C22.1809243,15.3195406 20.9969602,15.5940638 20.472115,15.8096267 Z M6.84362555,11.2750232 C6.68803405,10.9704532 6.66518605,10.601126 6.84298205,10.2799941 C7.11989305,9.77966394 7.73871856,9.60493786 8.22512282,9.8901309 C8.71152707,10.1753239 8.88095582,10.8122882 8.60388407,11.312784 C8.42624932,11.633916 8.10589506,11.8020174 7.77202506,11.8195731 L3.89849076,18.8177337 L3.89688176,18.8177337 C3.89784726,18.8177337 3.89704276,18.8183964 3.89800826,18.8183964 L3.53324525,19.4775531 C3.48594025,19.5734457 3.42656775,19.6479735 3.3670345,19.7218397 C3.322143,19.781627 3.26309225,19.8185595 3.20178875,19.8538368 C3.14740425,19.8872907 3.0899625,19.9156119 3.02109675,19.9253827 C2.95995425,19.9330014 2.89993824,19.9166057 2.83847399,19.9016998 C2.76912549,19.8831505 2.70122524,19.863939 2.64635799,19.8198847 C2.59905299,19.7812958 2.57169999,19.7301198 2.54048499,19.6796066 C2.50090324,19.613857 2.46276974,19.5481064 2.45327674,19.4676166 C2.44056549,19.3553283 2.43557749,19.2387331 2.49414549,19.1329037 L6.84362555,11.2750232 Z M14.9535272,20.2516488 C13.5757299,20.8122637 12.1940716,20.9127934 13.2122536,19.5833837 C14.2236789,18.2625853 17.7163597,18.0759336 17.7163597,18.0759336 C17.7163597,18.0759336 16.2518379,19.7231637 14.9535272,20.2516488 Z" id="signature" fill-rule="nonzero"></path>
    </g>
</svg>